<?xml version="1.0" encoding="utf-8"?>
<!-- Generator: Adobe Illustrator 22.0.0, SVG Export Plug-In . SVG Version: 6.00 Build 0)  -->
<svg version="1.1" id="Layer_1" xmlns="http://www.w3.org/2000/svg" xmlns:xlink="http://www.w3.org/1999/xlink" x="0px" y="0px"
	 viewBox="0 0 63 63" style="enable-background:new 0 0 63 63;" xml:space="preserve">
<style type="text/css">
	.st0{opacity:0.85;enable-background:new    ;}
</style>
<title>Asset 12</title>
<path class="st0" d="M0,31.5C0,48.9,14.1,63,31.5,63S63,48.9,63,31.5S48.9,0,31.5,0C14.1,0,0,14.1,0,31.5z M3,31.5
	C3,15.8,15.8,3,31.5,3S60,15.8,60,31.5S47.2,60,31.5,60C15.8,60,3,47.2,3,31.5z"/>
<path d="M36.5,48.9c5.1,0,9.2-4.1,9.3-9.2c0-3.4-1.8-6.5-4.8-8.1v-3.8c6.6,2.5,9.9,9.8,7.4,16.4S38.6,54,32,51.5
	c-3.9-1.5-6.8-4.7-7.8-8.8h3.7C29.2,46.4,32.6,48.9,36.5,48.9z"/>
<circle cx="31.5" cy="12.6" r="4"/>
<path d="M19.7,36.3L19.7,36.3l0.3-0.6c0.3-0.5,0.7-0.8,1.2-0.9l8.3-1.4V25l-2.9,2.2c-0.3,0.2-0.7,0.4-1.1,0.4h-6.3
	c-1,0-1.8-0.8-1.8-1.8s0.8-1.8,1.8-1.8h5.7l6.4-4.9c0.1-0.1,0.3-0.2,0.5-0.2c2-0.9,4.4-0.1,5.3,1.9c0.2,0.5,0.4,1.1,0.4,1.7v13
	c0,2.2-1.8,4-4,4c-2.2,0-11.3-0.6-11.3-0.6L17,48.5c-0.3,0.6-0.9,0.9-1.5,0.9c-0.3,0-0.6-0.1-0.8-0.2c-0.5-0.3-0.8-0.8-0.9-1.4
	c0-0.3,0-0.7,0.2-1L19.7,36.3z"/>
<path d="M12.2,23.5c0.5-0.2,1.1,0,1.3,0.5l3.1,6.1H23c0.6,0,1,0.4,1,1s-0.4,1-1,1h-7c-0.4,0-0.7-0.2-0.9-0.5l-3.3-6.7
	C11.5,24.4,11.7,23.8,12.2,23.5z"/>
</svg>
